<svg width="34" height="34" viewBox="0 0 34 34" fill="none" xmlns="http://www.w3.org/2000/svg">
<path d="M17 32.8333C25.7445 32.8333 32.8334 25.7445 32.8334 17C32.8334 8.2555 25.7445 1.16667 17 1.16667M17 32.8333C8.25551 32.8333 1.16669 25.7445 1.16669 17C1.16669 8.2555 8.25551 1.16667 17 1.16667M17 32.8333C20.6819 32.8333 23.6667 25.7445 23.6667 17C23.6667 8.2555 20.6819 1.16667 17 1.16667M17 32.8333C13.3181 32.8333 10.3334 25.7445 10.3334 17C10.3334 8.2555 13.3181 1.16667 17 1.16667M2.00002 12H32M2.00002 22H32" stroke="white" stroke-width="2" stroke-linecap="round"/>
</svg>
