<svg width="32" height="28" viewBox="0 0 32 28" fill="none" xmlns="http://www.w3.org/2000/svg">
<path d="M25.9974 22.1577H4.3042C3.16307 22.1563 2.06906 21.6928 1.26215 20.8687C0.455248 20.0446 0.00134015 18.9273 0 17.7619V4.50216C0.00134015 3.33675 0.455248 2.21946 1.26215 1.39539C2.06906 0.571318 3.16307 0.107753 4.3042 0.106384H25.9974C27.1385 0.107753 28.2325 0.571318 29.0394 1.39539C29.8463 2.21946 30.3002 3.33675 30.3016 4.50216V17.7619C30.3002 18.9273 29.8463 20.0446 29.0394 20.8687C28.2325 21.6928 27.1385 22.1563 25.9974 22.1577V22.1577ZM4.3042 1.65784C3.56555 1.65784 2.85716 1.95751 2.33486 2.49092C1.81256 3.02434 1.51913 3.7478 1.51913 4.50216V17.7619C1.51913 18.5163 1.81256 19.2397 2.33486 19.7731C2.85716 20.3066 3.56555 20.6062 4.3042 20.6062H25.9974C26.736 20.6062 27.4444 20.3066 27.9667 19.7731C28.489 19.2397 28.7824 18.5163 28.7824 17.7619V4.50216C28.7824 3.7478 28.489 3.02434 27.9667 2.49092C27.4444 1.95751 26.736 1.65784 25.9974 1.65784H4.3042Z" fill="#E9E9E9"/>
<path d="M15.1508 14.2763C14.2138 14.2778 13.3018 13.9674 12.5531 13.392L0.729225 4.25913C0.645684 4.19925 0.574816 4.12279 0.520854 4.03432C0.466891 3.94584 0.430942 3.84717 0.415151 3.74419C0.399361 3.64121 0.404054 3.53604 0.42895 3.43495C0.453847 3.33387 0.498435 3.23894 0.560054 3.15585C0.621672 3.07275 0.699056 3.00319 0.787583 2.95132C0.876111 2.89945 0.973967 2.86633 1.07531 2.85395C1.17665 2.84156 1.27939 2.85016 1.3774 2.87923C1.47542 2.9083 1.56669 2.95724 1.64577 3.02314L13.4697 12.1664C13.9552 12.5365 14.5449 12.7365 15.1508 12.7365C15.7567 12.7365 16.3464 12.5365 16.832 12.1664L28.6559 3.02314C28.735 2.95724 28.8262 2.9083 28.9243 2.87923C29.0223 2.85016 29.125 2.84156 29.2263 2.85395C29.3277 2.86633 29.4255 2.89945 29.5141 2.95132C29.6026 3.00319 29.68 3.07275 29.7416 3.15585C29.8032 3.23894 29.8478 3.33387 29.8727 3.43495C29.8976 3.53604 29.9023 3.64121 29.8865 3.74419C29.8707 3.84717 29.8348 3.94584 29.7808 4.03432C29.7268 4.12279 29.656 4.19925 29.5724 4.25913L17.7485 13.392C16.9998 13.9674 16.0878 14.2778 15.1508 14.2763V14.2763Z" fill="#E9E9E9"/>
<path d="M1.05841 19.996C0.904357 19.9962 0.753876 19.9486 0.626936 19.8595C0.499995 19.7703 0.402596 19.6439 0.347662 19.4969C0.292729 19.3499 0.282857 19.1893 0.319358 19.0365C0.355859 18.8836 0.437007 18.7457 0.552034 18.6411L9.86936 10.1546C10.0198 10.0175 10.2174 9.94694 10.4187 9.95858C10.62 9.97022 10.8086 10.0631 10.9429 10.2167C11.0772 10.3703 11.1462 10.5721 11.1348 10.7777C11.1234 10.9833 11.0325 11.1759 10.8821 11.313L1.56479 19.7995C1.42642 19.928 1.24547 19.9983 1.05841 19.996V19.996ZM29.2433 19.996C29.0563 19.9983 28.8753 19.928 28.737 19.7995L19.4196 11.313C19.3451 11.2451 19.2845 11.1629 19.2411 11.071C19.1978 10.9792 19.1726 10.8795 19.1669 10.7777C19.1613 10.6759 19.1753 10.574 19.2083 10.4777C19.2412 10.3814 19.2924 10.2927 19.3589 10.2167C19.4254 10.1406 19.5059 10.0787 19.5958 10.0344C19.6858 9.9901 19.7833 9.96434 19.883 9.95858C19.9827 9.95282 20.0825 9.96716 20.1768 10.0008C20.2711 10.0344 20.3579 10.0867 20.4324 10.1546L29.7446 18.6411C29.8597 18.7457 29.9408 18.8836 29.9773 19.0365C30.0138 19.1893 30.004 19.3499 29.949 19.4969C29.8941 19.6439 29.7967 19.7703 29.6697 19.8595C29.5428 19.9486 29.3923 19.9962 29.2383 19.996H29.2433Z" fill="#E9E9E9"/>
</svg>
