<svg width="32" height="33" viewBox="0 0 32 33" fill="none" xmlns="http://www.w3.org/2000/svg">
<path d="M30.1872 14.7018C31.4927 13.7525 30.8212 11.6871 29.207 11.6871H22.8658C21.4111 11.6871 20.1244 10.7438 19.6869 9.35646L17.5894 2.7062C17.0993 1.15242 14.9005 1.15242 14.4104 2.7062L12.3129 9.35646C11.8753 10.7438 10.5886 11.6871 9.13394 11.6871H2.79277C1.17855 11.6871 0.507047 13.7525 1.81262 14.7018L7.46022 18.8082C8.68073 19.6957 9.1528 21.2924 8.61107 22.7009L6.16106 29.0707C5.565 30.6204 7.35411 31.9935 8.69693 31.0169L14.0393 27.1314C15.2081 26.2814 16.7916 26.2814 17.9605 27.1314L23.3029 31.0169C24.6457 31.9935 26.4348 30.6204 25.8387 29.0707L23.3887 22.7009C22.847 21.2924 23.3191 19.6957 24.5396 18.8082L30.1872 14.7018Z" stroke="white" stroke-width="2" stroke-linecap="round" stroke-linejoin="round"/>
</svg>
