<svg width="32" height="32" viewBox="0 0 32 32" fill="none" xmlns="http://www.w3.org/2000/svg">
<path d="M29.821 2.17905C33.0349 5.39299 29.4525 14.1862 21.8194 21.8193C14.1863 29.4524 5.39305 33.0349 2.17911 29.8209C-1.03482 26.607 2.54762 17.8138 10.1807 10.1807C17.8138 2.54756 26.6071 -1.03488 29.821 2.17905Z" stroke="white" stroke-width="2"/>
<path d="M2.17911 2.17905C-1.03482 5.39299 2.54762 14.1862 10.1807 21.8193C17.8138 29.4524 26.6071 33.0349 29.821 29.8209C33.0349 26.607 29.4525 17.8138 21.8194 10.1807C14.1863 2.54756 5.39305 -1.03488 2.17911 2.17905Z" stroke="white" stroke-width="2"/>
<path d="M19.3334 16C19.3334 17.8409 17.841 19.3333 16.0001 19.3333C14.1591 19.3333 12.6667 17.8409 12.6667 16C12.6667 14.159 14.1591 12.6667 16.0001 12.6667C17.841 12.6667 19.3334 14.159 19.3334 16Z" stroke="white" stroke-width="2"/>
</svg>
