<svg width="19" height="28" viewBox="0 0 19 28" fill="none" xmlns="http://www.w3.org/2000/svg">
<path d="M9.39277 0.425537C4.21768 0.425537 4.40466e-05 4.70905 4.96823e-05 9.96471C-0.00102964 10.0771 0.0154832 10.1889 0.0489701 10.2959C0.135667 13.6449 1.56371 16.5719 3.2451 19.2886C4.97965 22.0912 6.98995 24.7213 8.27983 27.4035C8.3646 27.5806 8.49626 27.7302 8.66003 27.8355C8.82381 27.9409 9.01324 27.9978 9.20709 27.9999C9.40094 28.0021 9.59155 27.9494 9.75756 27.8477C9.92356 27.746 10.0584 27.5994 10.147 27.4242C11.5013 24.7441 13.6148 22.1121 15.4385 19.3093C17.2623 16.5067 18.8181 13.4798 18.8181 9.98127C18.8198 9.84689 18.7962 9.71341 18.7488 9.58795C18.549 4.50952 14.441 0.425537 9.39277 0.425537ZM9.39277 2.54535C13.4398 2.54535 16.6982 5.8546 16.6982 9.96471C16.6969 10.0411 16.7037 10.1175 16.7186 10.1924C16.6562 12.9647 15.3921 15.5315 13.6937 18.1417C12.2581 20.3478 10.6388 22.6267 9.23785 24.9939C7.90801 22.6366 6.37592 20.3624 5.01439 18.1624C3.35738 15.4851 2.11993 12.8511 2.11993 9.98127C2.12066 9.91466 2.1152 9.84812 2.10363 9.78254C2.20049 5.75934 5.40716 2.54535 9.39277 2.54535ZM9.39277 6.79327C7.67598 6.79327 6.26186 8.22945 6.26186 9.97299C6.26186 11.7165 7.67598 13.1527 9.39277 13.1527C11.1096 13.1527 12.5237 11.7165 12.5237 9.97299C12.5237 8.22945 11.1096 6.79327 9.39277 6.79327ZM9.39277 8.91309C9.98151 8.91309 10.4364 9.37521 10.4364 9.97299C10.4364 10.571 9.98151 11.0329 9.39277 11.0329C8.80402 11.0329 8.34913 10.571 8.34913 9.97299C8.34913 9.37521 8.80402 8.91309 9.39277 8.91309Z" fill="#E9E9E9"/>
</svg>
