<svg width="24" height="34" viewBox="0 0 24 34" fill="none" xmlns="http://www.w3.org/2000/svg">
<path d="M2.21889 6.37756C0.710469 4.16485 2.29517 1.16666 4.97312 1.16666H19.0267C21.7047 1.16666 23.2894 4.16485 21.781 6.37756L15.8196 15.1224C15.0474 16.2551 15.0474 17.7449 15.8196 18.8776L21.781 27.6224C23.2894 29.8351 21.7047 32.8333 19.0267 32.8333H4.97312C2.29517 32.8333 0.710469 29.8351 2.21889 27.6224L8.18029 18.8776C8.95242 17.7449 8.95242 16.2551 8.18029 15.1224L2.21889 6.37756Z" stroke="white" stroke-width="2" stroke-linecap="round" stroke-linejoin="round"/>
<path d="M11.3492 24.4801C11.6828 24.0631 12.317 24.0631 12.6506 24.4801L14.2501 26.4794C14.6866 27.025 14.2982 27.8333 13.5994 27.8333H10.4004C9.70169 27.8333 9.31321 27.025 9.74972 26.4794L11.3492 24.4801Z" stroke="white" stroke-width="2" stroke-linecap="round" stroke-linejoin="round"/>
</svg>
