<svg width="32" height="22" viewBox="0 0 32 22" fill="none" xmlns="http://www.w3.org/2000/svg">
<path d="M30.1513 9.57207C30.7268 10.4493 30.7268 11.5507 30.1513 12.4279C28.3386 15.1911 23.6214 21 15.9998 21C8.37813 21 3.66097 15.1911 1.84826 12.4279C1.27275 11.5507 1.27275 10.4493 1.84826 9.57207C3.66097 6.80892 8.37813 1 15.9998 1C23.6214 1 28.3386 6.80892 30.1513 9.57207Z" stroke="white" stroke-width="2"/>
<path d="M20.9997 11C20.9997 13.7614 18.7612 16 15.9997 16C13.2383 16 10.9997 13.7614 10.9997 11C10.9997 8.23857 13.2383 6 15.9997 6C18.7612 6 20.9997 8.23857 20.9997 11Z" stroke="white" stroke-width="2"/>
</svg>
