<svg width="34" height="34" viewBox="0 0 34 34" fill="none" xmlns="http://www.w3.org/2000/svg">
<path d="M5.33338 9.49999C7.63457 9.49999 9.50005 7.63451 9.50005 5.33332C9.50005 3.03214 7.63457 1.16666 5.33338 1.16666C3.0322 1.16666 1.16672 3.03214 1.16672 5.33332C1.16672 7.63451 3.0322 9.49999 5.33338 9.49999ZM5.33338 9.49999V24.5C5.33338 13.1667 16.1667 5.33332 24.5001 5.33332M4.50005 32.8333H6.16672C8.00767 32.8333 9.50005 31.3409 9.50005 29.5V27.8333C9.50005 25.9924 8.00767 24.5 6.16672 24.5H4.50005C2.6591 24.5 1.16672 25.9924 1.16672 27.8333V29.5C1.16672 31.3409 2.6591 32.8333 4.50005 32.8333ZM27.8334 9.49999H29.5001C31.341 9.49999 32.8334 8.0076 32.8334 6.16666V4.49999C32.8334 2.65904 31.341 1.16666 29.5001 1.16666H27.8334C25.9924 1.16666 24.5001 2.65904 24.5001 4.49999V6.16666C24.5001 8.0076 25.9924 9.49999 27.8334 9.49999Z" stroke="white" stroke-width="2" stroke-linecap="round"/>
</svg>
