<svg width="34" height="28" viewBox="0 0 34 28" fill="none" xmlns="http://www.w3.org/2000/svg">
<path d="M1.16675 26.6667C1.16675 22.148 5.2708 19.1667 10.3334 19.1667C15.396 19.1667 19.5001 22.148 19.5001 26.6667M32.8334 22.5C32.8334 17.9813 28.7294 15 23.6667 15C21.8207 15 20.1036 15.3761 18.6667 16.0764M14.5001 10C14.5001 12.3012 12.6346 14.1667 10.3334 14.1667C8.03223 14.1667 6.16675 12.3012 6.16675 10C6.16675 7.69883 8.03223 5.83335 10.3334 5.83335C12.6346 5.83335 14.5001 7.69883 14.5001 10ZM27.8334 5.83335C27.8334 8.13454 25.9679 10 23.6667 10C21.3656 10 19.5001 8.13454 19.5001 5.83335C19.5001 3.53217 21.3656 1.66669 23.6667 1.66669C25.9679 1.66669 27.8334 3.53217 27.8334 5.83335Z" stroke="white" stroke-width="2" stroke-linecap="round" stroke-linejoin="round"/>
</svg>
