<svg width="27" height="28" viewBox="0 0 27 28" fill="none" xmlns="http://www.w3.org/2000/svg">
<path d="M19.6854 16.7712C19.4157 16.6335 17.6629 15.8073 17.3933 15.6696C17.1236 15.5319 16.8539 15.5319 16.5843 15.8073C16.3146 16.0827 15.7753 16.9089 15.5056 17.1843C15.3708 17.4597 15.1011 17.4597 14.8315 17.322C13.8876 16.9089 12.9438 16.3581 12.1348 15.6696C11.4607 14.9811 10.7865 14.1549 10.2472 13.3287C10.1124 13.0533 10.2472 12.7779 10.382 12.6402C10.5169 12.5025 10.6517 12.2271 10.9213 12.0894C11.0562 11.9517 11.191 11.6763 11.191 11.5386C11.3258 11.4009 11.3258 11.1255 11.191 10.9878C11.0562 10.8501 10.382 9.19771 10.1124 8.50921C9.97753 7.54531 9.70787 7.54531 9.4382 7.54531C9.30337 7.54531 9.03371 7.54531 8.76405 7.54531C8.49438 7.54531 8.08989 7.82071 7.95506 7.95841C7.14607 8.78461 6.74157 9.74851 6.74157 10.8501C6.8764 12.0894 7.2809 13.3287 8.08989 14.4303C9.57303 16.6335 11.4607 18.4236 13.7528 19.5252C14.427 19.8006 14.9663 20.076 15.6405 20.2137C16.3146 20.4891 16.9888 20.4891 17.7978 20.3514C18.7416 20.2137 19.5506 19.5252 20.0899 18.699C20.3596 18.1482 20.3596 17.5974 20.2247 17.0466C20.2247 17.0466 19.9551 16.9089 19.6854 16.7712ZM23.0562 4.2405C17.7978 -1.12981 9.30337 -1.12981 4.04494 4.2405C-0.269663 8.64691 -1.07865 15.3942 1.88764 20.7645L0 27.7872L7.14607 25.8594C9.16854 26.961 11.3258 27.5118 13.4831 27.5118C20.8989 27.5118 26.8315 21.453 26.8315 13.8795C26.9663 10.2993 25.4831 6.8568 23.0562 4.2405ZM19.4157 23.5185C17.6629 24.6201 15.6404 25.3086 13.4831 25.3086C11.4607 25.3086 9.57303 24.7578 7.82023 23.7939L7.41573 23.5185L3.23596 24.6201L4.31461 20.4891L4.04494 20.076C0.808989 14.568 2.42697 7.68301 7.68539 4.2405C12.9438 0.797995 19.6854 2.5881 22.9213 7.82071C26.1573 13.191 24.6742 20.2137 19.4157 23.5185Z" fill="#E9E9E9"/>
</svg>
